<svg version="1.1" xmlns="http://www.w3.org/2000/svg" viewBox="-7.94594615588712 -4.65252552991072 15.891892311774239 9.30505105982144" fill="none" stroke="black" stroke-width="0.6%" vector-effect="non-scaling-stroke">
    <path d="M -6.94595 0.89908 L 0 3.65252 L 0 3.40902 L 3.64662 2.937 L 2.7205 2.56988" />
    <path d="M -6.94595 0.65558 L 0 3.40902" />
    <path d="M -6.94595 0.89908 L -6.94595 0.65558" />
    <path d="M 0 3.65252 L 6.94595 2.75344 L 6.94595 -0.89908" />
    <path d="M 3.64662 2.937 L 3.64662 2.45" />
    <path d="M 0 2.92202 L 3.64662 2.45" />
    <path d="M 0 0 L 0 2.92202 L -6.94595 0.16858 L -6.94595 -2.75344" />
    <path d="M 0 0 L 6.94595 -0.89908" />
    <path d="M -6.01982 0.5357 L -6.94595 0.65558" />
    <path d="M 0 -3.65252 L -6.94595 -2.75344" />
    <path d="M 0 -3.65252 L 6.94595 -0.89908" />
    <path d="M 0 0 L -6.94595 -2.75344" />
    <path d="M 5.92266 -0.9623 L 0.27908 -0.23179 L -5.92266 -2.69022" />
    <path d="M -0.27908 -3.42073 L -5.92266 -2.69022" />
    <path d="M -0.27908 -3.42073 L 5.92266 -0.9623" />
    <path d="M -0.3659 -0.48747 L -0.27908 -0.49871 L -0.27908 -3.42073" />
    <path d="M -0.27908 -0.49871 L 0.3659 -0.24303" />
</svg>