<svg version="1.1" xmlns="http://www.w3.org/2000/svg" viewBox="-7.945946165332841 -4.652525559746129 15.891892330665678 9.305051119492257" fill="none" stroke="black" stroke-width="0.6%" vector-effect="non-scaling-stroke">
    <path d="M -6.94595 0.89908 L 0 3.65252 L 0 0 L -6.94595 -2.75344 L -6.94595 0.89908 Z" />
    <path d="M -6.59865 0.30625 L -0.3473 2.78435" />
    <path d="M -6.59865 0.30625 L -6.59865 0.79325 L -0.3473 3.27135 L -0.3473 2.78435" />
    <path d="M 0 3.65252 L 6.94595 2.75344 L 6.94595 -0.89908" />
    <path d="M 0 -3.65252 L -6.94595 -2.75344" />
    <path d="M -5.67252 0.67338 L -6.59865 0.79325" />
    <path d="M 0 0 L 6.94595 -0.89908" />
    <path d="M 0 -3.65252 L 6.94595 -0.89908" />
    <path d="M -0.27908 -3.42073 L -5.92266 -2.69022" />
    <path d="M -0.27908 -3.42073 L 5.92266 -0.9623 L 0.27908 -0.23179 L -5.92266 -2.69022" />
    <path d="M -0.27908 -0.49871 L -0.27908 -3.42073" />
    <path d="M -0.3659 -0.48747 L -0.27908 -0.49871 L 0.3659 -0.24303" />
</svg>